<svg xmlns="http://www.w3.org/2000/svg" xmlns:xlink="http://www.w3.org/1999/xlink" version="1.1" x="0px" y="0px" viewBox="0 0 100 100" enable-background="new 0 0 100 100" xml:space="preserve"><g><path fill="#fff" d="M33.154,42.721c0-0.59,0.226-1.18,0.676-1.631c0.901-0.9,2.36-0.9,3.262,0l12.884,12.884L62.864,41.09   c0.901-0.9,2.36-0.898,3.263,0c0.898,0.903,0.898,2.362,0,3.264L51.607,58.87c-0.902,0.897-2.361,0.897-3.263,0L33.83,44.354   C33.38,43.903,33.154,43.312,33.154,42.721z"></path><path fill="#fff" d="M5,49.978C5,25.178,25.179,5,49.978,5c24.8,0,44.979,20.178,44.979,44.978   c0,24.802-20.179,44.979-44.979,44.979C25.179,94.957,5,74.78,5,49.978z M90.344,49.978c0-22.257-18.108-40.365-40.366-40.365   S9.613,27.721,9.613,49.978c0,22.261,18.107,40.366,40.365,40.366S90.344,72.239,90.344,49.978z"></path></g></svg>
